<svg width="151" height="52" viewBox="0 0 151 52" fill="none" xmlns="http://www.w3.org/2000/svg">
<path d="M8.03785 39.975C10.0061 39.975 11.6367 39.225 12.9284 37.725C14.2201 36.2229 14.8666 34.0396 14.8666 31.175C14.7669 27.3104 13.1075 24.4125 9.88713 22.4812L8.15681 21.2375C7.7795 21.0292 7.51034 20.825 7.35173 20.6167C7.27843 20.5308 7.21841 20.415 7.17693 20.2795C7.13545 20.144 7.11377 19.993 7.11381 19.8396C7.11381 18.9771 7.44185 18.5479 8.09793 18.5479C8.91262 18.5479 9.51823 19.2708 9.91597 20.7208L14.3595 18.5458C13.2865 13.9208 11.2185 11.6104 8.15681 11.6104C6.32795 11.6104 4.80671 12.4396 3.59428 14.0958C2.38185 15.75 1.77504 17.9083 1.77504 20.5625C1.77504 21.3917 1.84473 22.1583 1.98412 22.8667C2.12351 23.575 2.33259 24.1958 2.61016 24.7292C2.88894 25.2646 3.1569 25.7292 3.41524 26.1271C3.67359 26.5229 4.00163 26.8958 4.40056 27.2396C4.7971 27.5854 5.0999 27.8354 5.30898 27.9896C5.51806 28.1458 5.80165 28.3271 6.15852 28.5333L6.66561 28.8458L8.45601 29.9833C8.89219 30.2604 9.17698 30.4917 9.30555 30.6812C9.36837 30.7727 9.41834 30.8878 9.45165 31.0177C9.48497 31.1477 9.50075 31.2891 9.49781 31.4312C9.49781 32.3292 9.01235 32.7792 8.03785 32.7792C6.60673 32.7792 5.75118 31.675 5.47361 29.4667L1 31.2271C1.55635 37.0604 3.9031 39.9771 8.03785 39.9771V39.975ZM22.0198 39.975C23.9881 39.975 25.4384 38.6625 26.3733 36.0417V39.4062H32.5159V12.1792H26.3733V27.0875C26.3733 30.1583 25.7664 31.6917 24.554 31.6917C23.3212 31.6917 22.7047 30.1583 22.7047 27.0875V12.1792H16.5621V28.1229C16.5621 36.025 18.3813 39.9771 22.0198 39.9771V39.975ZM41.3694 39.4062V24.5C41.3694 21.4271 41.975 19.8917 43.1874 19.8917C44.4203 19.8917 45.0379 21.4271 45.0379 24.5V39.4062H51.1794V23.4646C51.1794 15.5625 49.3613 11.6104 45.7228 11.6104C43.7546 11.6104 42.303 12.9229 41.3694 15.5437V12.1792H35.2255V39.4062H41.3694V39.4062ZM59.8538 39.4062V24.5C59.8538 21.4271 60.4594 19.8917 61.673 19.8917C62.9047 19.8917 63.5211 21.4271 63.5211 24.5V39.4062H69.665V23.4646C69.665 15.5625 67.8457 11.6104 64.2072 11.6104C62.239 11.6104 60.7875 12.9229 59.8538 15.5437V12.1792H53.71V39.4062H59.8538V39.4062ZM79.0544 51L89.0145 12.1792H82.6015L79.559 26.1042L76.8458 12.1792H70.136L76.6668 36.7667L73.0295 51H79.0544ZM95.4804 39.975C97.4487 39.975 99.0793 39.225 100.371 37.725C101.664 36.2229 102.31 34.0396 102.31 31.175C102.211 27.3104 100.55 24.4125 97.3297 22.4812L95.5994 21.2375C95.2221 21.0292 94.9541 20.825 94.7943 20.6167C94.721 20.5308 94.661 20.415 94.6195 20.2795C94.578 20.144 94.5563 19.993 94.5564 19.8396C94.5564 18.9771 94.8844 18.5479 95.5405 18.5479C96.3552 18.5479 96.962 19.2708 97.3597 20.7208L101.803 18.5458C100.729 13.9208 98.6623 11.6104 95.6006 11.6104C93.7717 11.6104 92.2505 12.4396 91.0381 14.0958C89.8244 15.7521 89.2188 17.9083 89.2188 20.5646C89.2188 21.3937 89.2885 22.1604 89.4267 22.8687C89.5661 23.5771 89.7752 24.1979 90.0539 24.7312C90.3315 25.2667 90.6007 25.7312 90.859 26.1292C91.1174 26.525 91.4454 26.8979 91.8431 27.2417C92.2397 27.5875 92.5437 27.8375 92.7528 27.9917C92.9606 28.1479 93.2454 28.3292 93.6023 28.5354L94.1094 28.8479L95.8986 29.9854C96.336 30.2625 96.6196 30.4937 96.7481 30.6833C96.8112 30.7746 96.8614 30.8896 96.8949 31.0195C96.9284 31.1495 96.9444 31.291 96.9416 31.4333C96.9416 32.3312 96.4549 32.7812 95.4804 32.7812C94.0505 32.7812 93.195 31.6771 92.9162 29.4687L88.4426 31.2271C89.0001 37.0604 91.3457 39.9771 95.4804 39.9771V39.975ZM107.256 10.5229C108.35 10.5229 109.194 10.075 109.792 9.17708C110.386 8.28125 110.686 7.14167 110.686 5.76042C110.686 4.34792 110.397 3.19792 109.82 2.32083C109.244 1.4375 108.389 1 107.256 1C106.123 1 105.268 1.43958 104.691 2.32083C104.114 3.2 103.826 4.34792 103.826 5.7625C103.826 7.14167 104.125 8.28125 104.721 9.17917C105.318 10.075 106.163 10.5229 107.256 10.5229V10.5229ZM110.328 39.4062V12.1792H104.183V39.4062H110.326H110.328ZM119.628 39.975C121.715 39.975 123.205 38.6625 124.1 36.0417V39.4062H130.243V1.98333H124.1V15.5958C123.205 12.9396 121.715 11.6104 119.627 11.6104C117.52 11.6104 115.765 12.9479 114.364 15.6229C112.963 18.2958 112.261 21.6854 112.261 25.7937C112.261 29.8979 112.963 33.2896 114.364 35.9646C115.765 38.6375 117.52 39.975 119.627 39.975H119.628ZM121.298 31.85C120.422 31.85 119.722 31.2792 119.195 30.1417C118.668 29.0021 118.405 27.5521 118.405 25.7937C118.405 24.0333 118.663 22.5854 119.18 21.4458C119.717 20.3062 120.422 19.7375 121.297 19.7375C122.172 19.7375 122.872 20.3062 123.4 21.4458C123.926 22.5833 124.189 24.0333 124.189 25.7937C124.189 27.5521 123.926 29.0021 123.4 30.1417C122.872 31.2792 122.172 31.85 121.297 31.85H121.298ZM141.363 39.975C144.483 39.975 146.919 38.4042 148.669 35.2667L146.133 29.3646C144.881 31.125 143.469 32.0042 141.899 32.0042C140.707 32.0042 139.737 31.5375 138.991 30.6083C138.246 29.675 137.873 28.7771 137.873 27.9146H149.414C149.513 27.2937 149.563 26.4833 149.563 25.4833C149.563 21.2042 148.753 17.8229 147.133 15.3375C145.512 12.8521 143.44 11.6104 140.915 11.6104C138.211 11.6104 136.075 13.0083 134.504 15.8042C132.933 18.5979 132.148 21.9625 132.148 25.8958C132.148 29.9333 132.977 33.2896 134.637 35.9646C136.298 38.6375 138.539 39.975 141.363 39.975V39.975ZM144.016 22.9979H137.873C137.913 21.7208 138.231 20.7479 138.827 20.0729C139.423 19.4 140.13 19.0646 140.945 19.0646C141.759 19.0646 142.466 19.4083 143.062 20.1C143.659 20.7896 143.976 21.7562 144.016 22.9979Z" fill="#2C7363" stroke="#2C7363"/>
</svg>
